<!-- This Source Code Form is subject to the terms of the Mozilla Public
   - License, v. 2.0. If a copy of the MPL was not distributed with this
   - file, You can obtain one at http://mozilla.org/MPL/2.0/. -->
<svg width="24" height="24" viewBox="0 0 24 24" fill="none" xmlns="http://www.w3.org/2000/svg"><path fill-rule="evenodd" clip-rule="evenodd" d="M22 6a2 2 0 0 1-2.07 1.999l-3.164 5.062a2 2 0 1 1-3.762.81l-3.117-2.078A1.992 1.992 0 0 1 8.93 12l-3.164 5.06A2 2 0 1 1 4.07 16l3.164-5.062a2 2 0 1 1 3.762-.81l3.117 2.078A1.992 1.992 0 0 1 15.07 12l3.164-5.062A2 2 0 1 1 22 6z" fill="#0C0C0D" fill-opacity=".8"/></svg>