<!-- This Source Code Form is subject to the terms of the Mozilla Public
   - License, v. 2.0. If a copy of the MPL was not distributed with this
   - file, You can obtain one at http://mozilla.org/MPL/2.0/. -->
<svg width="36" height="36" viewBox="0 0 36 36" fill="none" xmlns="http://www.w3.org/2000/svg"><path fill-rule="evenodd" clip-rule="evenodd" d="M17.5 3A1.5 1.5 0 0119 4.5v3.618a9.45 9.45 0 014.073 1.688l2.559-2.559a1.5 1.5 0 012.121 2.121l-2.559 2.559A9.45 9.45 0 0126.882 16H30.5a1.5 1.5 0 010 3h-3.618a9.45 9.45 0 01-1.688 4.073l2.56 2.559a1.5 1.5 0 11-2.122 2.121l-2.559-2.559A9.45 9.45 0 0119 26.882V30.5a1.5 1.5 0 01-3 0v-3.618a9.45 9.45 0 01-4.073-1.688l-2.559 2.56a1.5 1.5 0 01-2.121-2.122l2.559-2.559A9.45 9.45 0 018.118 19H4.5a1.5 1.5 0 010-3h3.618a9.45 9.45 0 011.688-4.073L7.247 9.368a1.5 1.5 0 112.121-2.121l2.559 2.559A9.45 9.45 0 0116 8.118V4.5A1.5 1.5 0 0117.5 3zm0 21a6.48 6.48 0 01-4.591-1.899l-.005-.005-.005-.005A6.48 6.48 0 0111 17.5a6.48 6.48 0 011.9-4.591l.004-.005.005-.005A6.5 6.5 0 1117.5 24z" fill="#0C0C0D" fill-opacity=".8"/></svg>