<!-- This Source Code Form is subject to the terms of the Mozilla Public
   - License, v. 2.0. If a copy of the MPL was not distributed with this
   - file, You can obtain one at http://mozilla.org/MPL/2.0/. -->
<svg width="24" height="24" viewBox="0 0 24 24" fill="none" xmlns="http://www.w3.org/2000/svg"><path fill-rule="evenodd" clip-rule="evenodd" d="M6 6.3C6 5.552 6.552 5 7.3 5h9.4c.748 0 1.3.552 1.3 1.3v11.4c0 .748-.552 1.3-1.3 1.3H7.3c-.748 0-1.3-.552-1.3-1.3V6.3zM7.3 3A3.263 3.263 0 0 0 4 6.3v11.4C4 19.552 5.448 21 7.3 21h9.4c1.852 0 3.3-1.448 3.3-3.3V6.3C20 4.448 18.552 3 16.7 3H7.3zm1.2 4a.5.5 0 0 0 0 1h7a.5.5 0 1 0 0-1h-7zM8 9.5a.5.5 0 0 1 .5-.5h7a.5.5 0 1 1 0 1h-7a.5.5 0 0 1-.5-.5zm.5 1.5a.5.5 0 0 0 0 1h7a.5.5 0 1 0 0-1h-7zM8 13.5a.5.5 0 0 1 .5-.5h7a.5.5 0 1 1 0 1h-7a.5.5 0 0 1-.5-.5zm.5 1.5a.5.5 0 0 0 0 1h3a.5.5 0 0 0 0-1h-3z" fill="#0C0C0D" fill-opacity=".8"/></svg>