<!-- This Source Code Form is subject to the terms of the Mozilla Public
   - License, v. 2.0. If a copy of the MPL was not distributed with this
   - file, You can obtain one at http://mozilla.org/MPL/2.0/. --><svg width="24" height="24" viewBox="0 0 24 24" xmlns="http://www.w3.org/2000/svg"><path fill-rule="evenodd" d="M6.324 14.034C9.358 9.31 14.18 5.058 19.828 4.17c-.886 5.532-5.09 10.046-9.922 13.468l-.02-.013c-.622-.396-1.364-.932-1.972-1.54-.607-.607-1.143-1.349-1.54-1.971l-.05-.08zm7.66 2.96C18.159 13.403 21.607 8.739 21.969 3A.91.91 0 0 0 21 2.031C15.239 2.393 10.315 5.833 6.816 10H3.833a1 1 0 0 0-.923.615l-.833 2a1 1 0 0 0 .476 1.28l1.931.965c.436.72 1.14 1.765 2.016 2.64.875.875 1.92 1.58 2.64 2.016l.966 1.931a1 1 0 0 0 1.341.447l2-1A1 1 0 0 0 14 20v-3l-.015-.006zm1.782-10.386l.007-.003a.526.526 0 0 1 .45.007l.18.09a2 2 0 0 1 .895.894l.09.18a.496.496 0 0 1-.001.447c-.308.596-.75 1.385-1.084 1.881-.154.23-.461.238-.657.042l-1.793-1.792c-.195-.196-.195-.514.023-.683.647-.501 1.456-.867 1.89-1.063z"/></svg>