<svg width="24" height="24" viewBox="0 0 24 24" xmlns="http://www.w3.org/2000/svg"><path fill-rule="evenodd" d="M9.23 16.23l-1.46-1.46-4.176-1.856a1 1 0 0 1-.517-1.299l.833-2A1 1 0 0 1 4.833 9H9.36c2.814-3.637 7.558-6.528 11.644-6.948a.855.855 0 0 1 .945.945c-.42 4.086-3.311 8.83-6.948 11.644V19a1 1 0 0 1-.553.894l-2 1a1 1 0 0 1-1.36-.488L9.23 16.23zm6.125-9.608a9.239 9.239 0 0 1 1.387-1.04.46.46 0 0 1 .442-.01l.18.09a2 2 0 0 1 .894.894l.09.18a.472.472 0 0 1-.006.444 9.724 9.724 0 0 1-1.038 1.444.469.469 0 0 1-.697.008L15.34 7.313a.48.48 0 0 1 .015-.69zm-9.523 9.933a1 1 0 1 0-1.664-1.11c-.623.934-.9 2.109-1.031 2.965A12.319 12.319 0 0 0 3 19.96V20c0 .552.449 1 1 1h.043a6.919 6.919 0 0 0 .433-.017c.28-.017.671-.051 1.115-.12.856-.131 2.031-.408 2.965-1.031a1 1 0 1 0-1.11-1.664c-.566.378-1.391.6-2.16.719a9.6 9.6 0 0 1-.2.028l.005-.037.007-.053a9.54 9.54 0 0 1 .016-.11c.119-.768.342-1.594.719-2.16zM4.001 21L4 20v1zM4 20H3h1z"/></svg>