<svg width="24" height="24" viewBox="0 0 24 24" fill="none" xmlns="http://www.w3.org/2000/svg">
<rect width="24" height="24" fill="white"/>
<path fill-rule="evenodd" clip-rule="evenodd" d="M2.0619 9C2.43524 6.00598 4.46303 3.52579 7.20153 2.50311C7.15165 2.63986 7.10143 2.78342 7.05132 2.93378C6.57772 4.35455 6.11439 6.3775 6.01817 9H2.0619ZM8.94868 3.56622C9.1826 2.86447 9.41384 2.34604 9.5814 2.01077C9.72003 2.00363 9.85959 2 10 2C10.1404 2 10.28 2.00363 10.4186 2.01077C10.5862 2.34604 10.8174 2.86447 11.0513 3.56622C11.4634 4.80261 11.8856 6.61304 11.9804 9H8.01963C8.11436 6.61304 8.53655 4.80261 8.94868 3.56622ZM11.9804 11H8.01963C8.11436 13.387 8.53655 15.1974 8.94868 16.4338C9.1826 17.1355 9.41384 17.654 9.5814 17.9892C9.72003 17.9964 9.85959 18 10 18C10.1404 18 10.28 17.9964 10.4186 17.9892C10.5862 17.654 10.8174 17.1355 11.0513 16.4338C11.4634 15.1974 11.8856 13.387 11.9804 11ZM12.7985 17.4969C12.8484 17.3601 12.8986 17.2166 12.9487 17.0662C13.4223 15.6454 13.8856 13.6225 13.9818 11H17.9381C17.5648 13.994 15.537 16.4742 12.7985 17.4969ZM13.9818 9C13.8856 6.3775 13.4223 4.35455 12.9487 2.93378C12.8986 2.78342 12.8484 2.63986 12.7985 2.50311C15.537 3.52579 17.5648 6.00598 17.9381 9H13.9818ZM2.0619 11H6.01817C6.11439 13.6225 6.57772 15.6454 7.05132 17.0662C7.07819 17.1469 7.10509 17.2255 7.13197 17.3022C7.1552 17.3686 7.1784 17.4335 7.20153 17.4969C4.46303 16.4742 2.43524 13.994 2.0619 11ZM10 0C4.47715 0 0 4.47714 0 10C0 15.5229 4.47715 20 10 20C15.5229 20 20 15.5229 20 10C20 4.47714 15.5229 0 10 0Z" transform="translate(2 2)" fill="#0C0C0D" fill-opacity="0.8"/>
</svg>
