<!-- This Source Code Form is subject to the terms of the Mozilla Public
   - License, v. 2.0. If a copy of the MPL was not distributed with this
   - file, You can obtain one at http://mozilla.org/MPL/2.0/. -->
<svg xmlns="http://www.w3.org/2000/svg" width="16" height="16" viewBox="0 0 16 16"><g fill="context-fill"><path d="M8.587 2.354L5.5 5H4.191A2.191 2.191 0 002 7.191v1.618A2.191 2.191 0 004.191 11H5.5l3.17 2.717a.2.2 0 00.33-.152V2.544a.25.25 0 00-.413-.19zm2.988.921a.5.5 0 00-.316.949 3.97 3.97 0 010 7.551.5.5 0 00.316.949 4.971 4.971 0 000-9.449z"/><path d="M13 8a3 3 0 00-2.056-2.787.5.5 0 10-.343.939A2.008 2.008 0 0112 8a2.008 2.008 0 01-1.4 1.848.5.5 0 00.343.939A3 3 0 0013 8z"/></g></svg>