<!-- This Source Code Form is subject to the terms of the Mozilla Public
   - License, v. 2.0. If a copy of the MPL was not distributed with this
   - file, You can obtain one at http://mozilla.org/MPL/2.0/. -->
<svg xmlns="http://www.w3.org/2000/svg" width="16" height="16" viewBox="0 0 16 16"><g fill="context-fill"><path d="M13 8a2.813 2.813 0 00-.465-1.535l-.744.744A1.785 1.785 0 0112 8a2.008 2.008 0 01-1.4 1.848.5.5 0 00.343.939A3 3 0 0013 8z"/><path d="M13.273 5.727A3.934 3.934 0 0114 8a3.984 3.984 0 01-2.742 3.775.5.5 0 00.316.949A4.985 4.985 0 0015 8a4.93 4.93 0 00-1.012-2.988zm-4.603 7.99a.2.2 0 00.33-.152V10l-2.154 2.154zm6.037-12.424a1 1 0 00-1.414 0L9 5.586V2.544a.25.25 0 00-.413-.19L5.5 5H4.191A2.191 2.191 0 002 7.191v1.618a2.186 2.186 0 001.659 2.118l-2.366 2.366a1 1 0 101.414 1.414l12-12a1 1 0 000-1.414z"/></g></svg>