<!-- This Source Code Form is subject to the terms of the Mozilla Public
   - License, v. 2.0. If a copy of the MPL was not distributed with this
   - file, You can obtain one at http://mozilla.org/MPL/2.0/. -->
<svg xmlns="http://www.w3.org/2000/svg" width="32" height="32" viewBox="0 0 32 32" fill="context-fill" fill-opacity="context-fill-opacity"><path d="M21.954 1.185a1.5 1.5 0 00-1.117 2.784A12.961 12.961 0 115 9.207V10.5a1.5 1.5 0 003 0v-6A1.5 1.5 0 006.5 3h-5a1.5 1.5 0 000 3h2.1a15.934 15.934 0 1018.354-4.815z"/><path d="M13 24.245l11.325-6.538a1.99 1.99 0 000-3.446L13 7.723a1.989 1.989 0 00-2.984 1.723v13.076A1.989 1.989 0 0013 24.245z"/></svg>