<svg xmlns="http://www.w3.org/2000/svg" width="16" height="16" viewBox="0 0 16 16">
  <path d="M5.5 12a.5.5 0 0 0 .5-.5v-6a.5.5 0 0 0-1 0v6a.5.5 0 0 0 .5.5z"/>
  <path d="M7.5 12a.5.5 0 0 0 .5-.5v-6a.5.5 0 0 0-1 0v6a.5.5 0 0 0 .5.5z"/>
  <path d="M9.5 12a.5.5 0 0 0 .5-.5v-6a.5.5 0 0 0-1 0v6a.5.5 0 0 0 .5.5z"/>
  <path d="M13 2H9.95a2.5 2.5 0 0 0-4.9 0H2a1 1 0 0 0 0 2v9a3 3 0 0 0 3 3h5a3 3 0 0 0 3-3V4a1 1 0 0 0 0-2zM7.5 1a1.489 1.489 0 0 1 1.391 1H6.109A1.489 1.489 0 0 1 7.5 1zM11 13a1 1 0 0 1-1 1H5a1 1 0 0 1-1-1V4h7z"/>
</svg>
