<!-- This Source Code Form is subject to the terms of the Mozilla Public
   - License, v. 2.0. If a copy of the MPL was not distributed with this
   - file, You can obtain one at http://mozilla.org/MPL/2.0/. -->
<svg xmlns="http://www.w3.org/2000/svg" width="16" height="16" viewBox="0 0 16 16" fill="#0b0b0b"><path d="M5 1.5a.5.5 0 00-1 0v2a.5.5 0 001 0v-2zm3.5 2v-2a.5.5 0 00-1 0v2a.5.5 0 001 0zm3.5 0v-2a.5.5 0 10-1 0v2a.5.5 0 101 0zM5 7h4a.5.5 0 000-1H5a.5.5 0 000 1zm0 4h2a.5.5 0 100-1H5a.5.5 0 100 1zm1-2h5a.5.5 0 100-1H6a.5.5 0 000 1z"/><path d="M3 3.996v9.008c0-.003 0-.004.002-.004h9.996c-.001 0 .002-.003.002.004V3.996c0 .003 0 .004-.002.004H3.002C3.003 4 3 4.003 3 3.996zm-1 0C2 3.446 2.456 3 3.002 3h9.996A.998.998 0 0114 3.996v9.008c0 .55-.456.996-1.002.996H3.002A.998.998 0 012 13.004V3.996z"/></svg>