<!-- This Source Code Form is subject to the terms of the Mozilla Public
   - License, v. 2.0. If a copy of the MPL was not distributed with this
   - file, You can obtain one at http://mozilla.org/MPL/2.0/. -->
<svg viewBox="0 0 16 16" width="16" height="16" xmlns="http://www.w3.org/2000/svg" fill="context-fill #0b0b0b"><path d="M13 0a3 3 0 0 1 3 3v5a3 3 0 0 1-3 3H8a3 3 0 0 1-3-3V3a3 3 0 0 1 3-3zm0 2H8a1 1 0 0 0-1 1v5a1 1 0 0 0 1 1h5a1 1 0 0 0 1-1V3a1 1 0 0 0-1-1z"/><path d="M9 13v-1h2v1a3 3 0 0 1-3 3H3a3 3 0 0 1-3-3V8a3 3 0 0 1 3-3h1v2H3a1 1 0 0 0-1 1v5a1 1 0 0 0 1 1h5a1 1 0 0 0 1-1z"/></svg>