<!-- This Source Code Form is subject to the terms of the Mozilla Public
   - License, v. 2.0. If a copy of the MPL was not distributed with this
   - file, You can obtain one at http://mozilla.org/MPL/2.0/. -->
<svg xmlns="http://www.w3.org/2000/svg" width="16" height="16" viewBox="0 0 16 16" fill="context-fill" fill-opacity="context-fill-opacity"><path d="M8 0a7 7 0 00-7 7 1 1 0 002 0 5 5 0 0110 0 8.24 8.24 0 01-1.14 4.28A5.75 5.75 0 0011 14a1 1 0 002 0 3.91 3.91 0 01.63-1.79A10.18 10.18 0 0015 7a7 7 0 00-7-7z"/><path d="M8 3a4 4 0 00-4 4 2 2 0 01-2 2 1 1 0 000 2 4 4 0 004-4 2 2 0 014 0 6.88 6.88 0 01-1.74 4.8 11 11 0 00-1.15 1.75 1 1 0 00.44 1.34A.93.93 0 008 15a1 1 0 00.89-.55 9.74 9.74 0 011-1.44A8.84 8.84 0 0012 7a4 4 0 00-4-4z"/><path d="M8 6a1 1 0 00-1 1c0 4.21-5.26 6-5.32 6.05a1 1 0 00-.63 1.27A1 1 0 002 15a1.25 1.25 0 00.32 0C2.59 14.86 9 12.66 9 7a1 1 0 00-1-1z"/></svg>