<!-- This Source Code Form is subject to the terms of the Mozilla Public
   - License, v. 2.0. If a copy of the MPL was not distributed with this
   - file, You can obtain one at http://mozilla.org/MPL/2.0/. -->
<svg xmlns="http://www.w3.org/2000/svg" width="16" height="16" viewBox="0 0 16 16" fill="context-fill" fill-opacity="context-fill-opacity"><path d="M14.71 1.29a1 1 0 00-1.42 0l-.56.57A7 7 0 001 7a1 1 0 002 0 5 5 0 015-5 5 5 0 013.31 1.28l-.7.7A4 4 0 008 3a4 4 0 00-4 4 2 2 0 01-2 2 1 1 0 000 2 3.86 3.86 0 002.33-.75l-3 3a.91.91 0 00-.08.13.82.82 0 00-.11.17 1.17 1.17 0 00-.06.2A.86.86 0 001 14a.61.61 0 000 .23.62.62 0 000 .13v.08a.76.76 0 00.12.19s0 .06.06.09a1 1 0 001.42 0l12-12a1 1 0 00.11-1.43zM6 7a2 2 0 012-2 1.94 1.94 0 011.18.41l-.72.72A.91.91 0 008 6a1 1 0 00-1 1 4.76 4.76 0 01-.06.65L5.12 9.47A4.1 4.1 0 006 7zm3.68 2.32a8.06 8.06 0 01-1.42 2.48 11 11 0 00-1.15 1.75 1 1 0 00.44 1.34A.93.93 0 008 15a1 1 0 00.89-.55 9.74 9.74 0 011-1.44A8.84 8.84 0 0012 7zm3.23-3.23A5.5 5.5 0 0113 7a8.24 8.24 0 01-1.14 4.28A5.75 5.75 0 0011 14a1 1 0 002 0 3.91 3.91 0 01.63-1.79A10.18 10.18 0 0015 7a6.81 6.81 0 00-.48-2.52z"/></svg>