<!-- This Source Code Form is subject to the terms of the Mozilla Public
   - License, v. 2.0. If a copy of the MPL was not distributed with this
   - file, You can obtain one at http://mozilla.org/MPL/2.0/. -->
<svg xmlns="http://www.w3.org/2000/svg" width="16" height="16" viewBox="0 0 16 16"><path fill="context-fill" d="M7.707 8.293a1 1 0 00-1.414 0L3 11.586V9a1 1 0 00-2 0v5a1 1 0 001 1h5a1 1 0 100-2H4.414l3.293-3.293a1 1 0 000-1.414zM14 1H9a1 1 0 000 2h2.586L8.293 6.293a1 1 0 101.414 1.414L13 4.414V7a1 1 0 002 0V2a1 1 0 00-1-1z"/></svg>