<!-- This Source Code Form is subject to the terms of the Mozilla Public
   - License, v. 2.0. If a copy of the MPL was not distributed with this
   - file, You can obtain one at http://mozilla.org/MPL/2.0/. -->
<svg xmlns="http://www.w3.org/2000/svg" width="16" height="16" viewBox="0 0 16 16"><path fill="context-fill" d="M8 1a7 7 0 107 7 7.008 7.008 0 00-7-7zm0 13a6 6 0 116-6 6.007 6.007 0 01-6 6zM8 3.125A2.7 2.7 0 005.125 6a.875.875 0 001.75 0c0-1 .6-1.125 1.125-1.125a1.105 1.105 0 011.13.744.894.894 0 01-.53 1.016A2.738 2.738 0 007.125 9v.337a.875.875 0 001.75 0v-.37a1.041 1.041 0 01.609-.824A2.637 2.637 0 0010.82 5.16 2.838 2.838 0 008 3.125zm0 7.625A1.25 1.25 0 109.25 12 1.25 1.25 0 008 10.75z"/></svg>