<!-- This Source Code Form is subject to the terms of the Mozilla Public
   - License, v. 2.0. If a copy of the MPL was not distributed with this
   - file, You can obtain one at http://mozilla.org/MPL/2.0/. -->
<svg xmlns="http://www.w3.org/2000/svg" width="16" height="16" viewBox="0 0 16 16"><path fill="context-fill" fill-rule="evenodd" d="M13.5 5A2.5 2.5 0 1116 2.5 2.5 2.5 0 0113.5 5zM8 6a1 1 0 111-1 1 1 0 01-1 1zm1 5a1 1 0 01-2 0V8a1 1 0 012 0v3zM8 2a6.08 6.08 0 105.629 3.987 3.452 3.452 0 00.984-.185A6.9 6.9 0 0115 8a7 7 0 11-7-7 6.9 6.9 0 012.2.387 3.452 3.452 0 00-.185.984A5.951 5.951 0 008 2z"/></svg>