<!-- This Source Code Form is subject to the terms of the Mozilla Public
   - License, v. 2.0. If a copy of the MPL was not distributed with this
   - file, You can obtain one at http://mozilla.org/MPL/2.0/. -->
<svg xmlns="http://www.w3.org/2000/svg" width="16" height="16" viewBox="0 0 16 16"><path d="M12.7 6.3a4.953 4.953 0 01.2.7H12l-1 1a1 1 0 001 1h.9A5.015 5.015 0 019 12.9V12a1 1 0 00-1-1l-1 1v.9a4.953 4.953 0 01-.7-.2l-1.512 1.512a6.989 6.989 0 009.425-9.425zm2.007-5.007a1 1 0 00-1.414 0L12.184 2.4A6.986 6.986 0 002.4 12.184l-1.107 1.109a1 1 0 101.414 1.414l12-12a1 1 0 000-1.414zM3.1 9H4a1 1 0 000-2h-.9A5.015 5.015 0 017 3.1V4a1 1 0 002 0v-.9a4.955 4.955 0 011.747.738l-6.908 6.909A4.957 4.957 0 013.1 9z" fill="context-fill"/></svg>