<!-- This Source Code Form is subject to the terms of the Mozilla Public
   - License, v. 2.0. If a copy of the MPL was not distributed with this
   - file, You can obtain one at http://mozilla.org/MPL/2.0/. -->
<svg xmlns="http://www.w3.org/2000/svg" width="16" height="16" viewBox="0 0 16 16"><path fill="context-fill" d="M14 7h-.091A6 6 0 009 2.09V2a1 1 0 00-2 0v.09A6 6 0 002.091 7H2a1 1 0 000 2h.091A6 6 0 007 13.91V14a1 1 0 002 0v-.09A6 6 0 0013.909 9H14a1 1 0 000-2zm-6 5a4 4 0 114-4 4 4 0 01-4 4zm0-6a2 2 0 102 2 2 2 0 00-2-2z"/></svg>