<!-- This Source Code Form is subject to the terms of the Mozilla Public
   - License, v. 2.0. If a copy of the MPL was not distributed with this
   - file, You can obtain one at http://mozilla.org/MPL/2.0/. -->
<svg xmlns="http://www.w3.org/2000/svg" width="16" height="16" viewBox="0 0 16 16"><path fill="context-fill" d="M8 1a7 7 0 107 7 7.008 7.008 0 00-7-7zm1 11.9V12a1 1 0 00-2 0v.9A5.015 5.015 0 013.1 9H4a1 1 0 000-2h-.9A5.015 5.015 0 017 3.1V4a1 1 0 002 0v-.9A5.015 5.015 0 0112.9 7H12a1 1 0 000 2h.9A5.015 5.015 0 019 12.9z"/></svg>