<!-- This Source Code Form is subject to the terms of the Mozilla Public
   - License, v. 2.0. If a copy of the MPL was not distributed with this
   - file, You can obtain one at http://mozilla.org/MPL/2.0/. -->
<svg xmlns="http://www.w3.org/2000/svg" width="16" height="16" viewBox="0 0 16 16"><g fill="context-fill"><path d="M13.577 1H2.423A2.426 2.426 0 000 3.423v6.154A2.426 2.426 0 002.423 12H8.26l2.966 3.633A1 1 0 0013 15v-3h.577A2.426 2.426 0 0016 9.577V3.423A2.426 2.426 0 0013.577 1zM14 9.577a.423.423 0 01-.423.423H12a1 1 0 00-1 1v1.194l-1.491-1.827A1 1 0 008.734 10H2.423A.423.423 0 012 9.577V3.423A.423.423 0 012.423 3h11.154a.423.423 0 01.423.423z"/><path d="M11.5 5h-7a.5.5 0 000 1h7a.5.5 0 000-1zm0 2h-7a.5.5 0 000 1h7a.5.5 0 000-1z"/></g></svg>