<!-- This Source Code Form is subject to the terms of the Mozilla Public
   - License, v. 2.0. If a copy of the MPL was not distributed with this
   - file, You can obtain one at http://mozilla.org/MPL/2.0/. -->
<svg xmlns="http://www.w3.org/2000/svg" width="16" height="16" viewBox="0 0 16 16"><path fill="context-fill" d="M8 1a8.009 8.009 0 00-8 8 7.917 7.917 0 00.78 3.43 1 1 0 101.8-.86A5.943 5.943 0 012 9a6 6 0 1111.414 2.571 1 1 0 101.807.858A7.988 7.988 0 008 1z"/><path fill="context-fill" d="M11.769 7.078a.5.5 0 00-.69.153L8.616 11.1a2 2 0 10.5 3.558 2.011 2.011 0 00.54-.54 1.954 1.954 0 00-.2-2.479l2.463-3.871a.5.5 0 00-.15-.69z"/></svg>