<!-- This Source Code Form is subject to the terms of the Mozilla Public
   - License, v. 2.0. If a copy of the MPL was not distributed with this
   - file, You can obtain one at http://mozilla.org/MPL/2.0/. -->
<svg xmlns="http://www.w3.org/2000/svg" width="16" height="16" viewBox="0 0 16 16"><path fill="context-fill" d="M14.707 13.293L11.414 10l2.293-2.293a1 1 0 000-1.414A4.384 4.384 0 0010.586 5h-.172A2.415 2.415 0 018 2.586V2a1 1 0 00-1.707-.707l-5 5A1 1 0 002 8h.586A2.415 2.415 0 015 10.414v.169a4.036 4.036 0 001.337 3.166 1 1 0 001.37-.042L10 11.414l3.293 3.293a1 1 0 001.414-1.414zm-7.578-1.837A2.684 2.684 0 017 10.583v-.169a4.386 4.386 0 00-1.292-3.121 4.414 4.414 0 00-1.572-1.015l2.143-2.142a4.4 4.4 0 001.013 1.571A4.384 4.384 0 0010.414 7h.172a2.4 2.4 0 01.848.152z"/></svg>