<!-- This Source Code Form is subject to the terms of the Mozilla Public
   - License, v. 2.0. If a copy of the MPL was not distributed with this
   - file, You can obtain one at http://mozilla.org/MPL/2.0/. -->
<svg xmlns="http://www.w3.org/2000/svg" width="16" height="16" viewBox="0 0 16 16"><path fill="context-fill" d="M11.414 10l2.293-2.293a1 1 0 000-1.414 4.418 4.418 0 00-.8-.622L11.425 7.15h.008l-4.3 4.3v-.017l-1.48 1.476a3.865 3.865 0 00.692.834 1 1 0 001.37-.042L10 11.414l3.293 3.293a1 1 0 001.414-1.414zm3.293-8.707a1 1 0 00-1.414 0L9.7 4.882A2.382 2.382 0 018 2.586V2a1 1 0 00-1.707-.707l-5 5A1 1 0 002 8h.586a2.382 2.382 0 012.3 1.7l-3.593 3.593a1 1 0 101.414 1.414l12-12a1 1 0 000-1.414zm-9 6a4.414 4.414 0 00-1.571-1.015l2.143-2.142a4.4 4.4 0 001.013 1.571 4.191 4.191 0 00.9.684L6.39 8.2a4.2 4.2 0 00-.683-.907z"/></svg>