<!-- This Source Code Form is subject to the terms of the Mozilla Public
   - License, v. 2.0. If a copy of the MPL was not distributed with this
   - file, You can obtain one at http://mozilla.org/MPL/2.0/. -->
<svg height="16" viewBox="0 0 16 16" width="16" xmlns="http://www.w3.org/2000/svg"><path fill="context-fill" fill-opacity="context-fill-opacity" d="M11 7.003a1 1 0 01-1-1v-1H3v8a1 1 0 001 1h1a1 1 0 110 2H3a2 2 0 01-2-2v-10a2 2 0 012-2h1.05a2.5 2.5 0 014.9 0H10a2 2 0 012 2v2a1 1 0 01-1 1zm-1-3v-1H8.949a1 1 0 01-.98-.8 1.5 1.5 0 00-2.939 0 1 1 0 01-.98.8H3v1zm-3.5-2a.5.5 0 110 1 .5.5 0 010-1zm-2 5a.5.5 0 110-1h4a.5.5 0 010 1zm0 2a.5.5 0 110-1h3a.5.5 0 010 1zm0 2a.5.5 0 110-1h2a.5.5 0 110 1zm10.41 3.338a1.15 1.15 0 01-1.09 1.66h-5.7a1.15 1.15 0 01-1-1.66l2.85-5.7a1.15 1.15 0 012.06 0zm-4.45-3.78v1.73a.58.58 0 001.15 0v-1.73a.58.58 0 10-1.15 0zm.57 4.13a.68.68 0 100-1.36.68.68 0 000 1.36z"/></svg>