<!-- This Source Code Form is subject to the terms of the Mozilla Public
   - License, v. 2.0. If a copy of the MPL was not distributed with this
   - file, You can obtain one at http://mozilla.org/MPL/2.0/. -->
<svg height="16" viewBox="0 0 16 16" width="16" xmlns="http://www.w3.org/2000/svg"><path fill="context-fill" fill-opacity="context-fill-opacity" d="M11 10a1 1 0 01-1-1V5H3v8a1 1 0 001 1h2a1 1 0 010 2H3a2 2 0 01-2-2V4a2 2 0 012-2h1.05a2.5 2.5 0 014.9 0H10a2 2 0 012 2v5a1 1 0 01-1 1zm-1-6V3H8.949a1 1 0 01-.98-.8 1.5 1.5 0 00-2.939 0 1 1 0 01-.98.8H3v1zM6.5 2a.5.5 0 110 1 .5.5 0 010-1zm-2 5a.5.5 0 010-1h4a.5.5 0 010 1zm0 2a.5.5 0 010-1h2a.5.5 0 010 1zm0 2a.5.5 0 110-1h3a.5.5 0 110 1zm5.163 4.997a.668.668 0 01-.473-.196l-2.003-2.003a.668.668 0 01.945-.944l1.44 1.44 4.217-6.024a.668.668 0 011.094.765l-4.674 6.677a.668.668 0 01-.488.285.576.576 0 01-.058 0z"/></svg>