<!-- This Source Code Form is subject to the terms of the Mozilla Public
   - License, v. 2.0. If a copy of the MPL was not distributed with this
   - file, You can obtain one at http://mozilla.org/MPL/2.0/. -->
<svg xmlns="http://www.w3.org/2000/svg" width="16" height="16" viewBox="0 0 16 16"><path fill="context-fill" d="M6 16a1 1 0 01-.707-.293 6.906 6.906 0 01-2.237-4.079 3.848 3.848 0 00-1.263-2.421 5.523 5.523 0 010-7.414 5.523 5.523 0 017.414 0 3.851 3.851 0 002.422 1.263 6.905 6.905 0 014.078 2.237 1 1 0 010 1.414l-9 9A1 1 0 016 16zM5.5 2.375a3.285 3.285 0 00-2.293.832A3.287 3.287 0 002.375 5.5a3.287 3.287 0 00.832 2.293 5.794 5.794 0 011.812 3.448 4.54 4.54 0 001.017 2.31l7.516-7.516a4.548 4.548 0 00-2.31-1.017 5.79 5.79 0 01-3.449-1.811A3.285 3.285 0 005.5 2.375zm5.232 11.893a2.5 2.5 0 103.536-3.536z"/></svg>