<!-- This Source Code Form is subject to the terms of the Mozilla Public
   - License, v. 2.0. If a copy of the MPL was not distributed with this
   - file, You can obtain one at http://mozilla.org/MPL/2.0/. -->
<svg xmlns="http://www.w3.org/2000/svg" width="16" height="16" viewBox="0 0 16 16"><path fill="context-fill" d="M14 3h-2v2h2v8H2V5h7V3h-.849L6.584 1.538A2 2 0 005.219 1H2a2 2 0 00-2 2v10a2 2 0 002 2h12a2 2 0 002-2V5a2 2 0 00-2-2zM2 3h3.219l1.072 1H2z"/><path fill="context-fill" d="M8.146 6.146a.5.5 0 000 .707l2 2a.5.5 0 00.707 0l2-2a.5.5 0 10-.707-.707L11 7.293V.5a.5.5 0 00-1 0v6.793L8.854 6.146a.5.5 0 00-.708 0z"/></svg>