<!-- This Source Code Form is subject to the terms of the Mozilla Public
   - License, v. 2.0. If a copy of the MPL was not distributed with this
   - file, You can obtain one at http://mozilla.org/MPL/2.0/. -->
<svg xmlns="http://www.w3.org/2000/svg" width="16" height="16" viewBox="0 0 16 16"><g fill="context-fill"><path d="M4 10a1 1 0 000-2H2V3h6v1a1 1 0 002 0V2a1 1 0 00-1-1H1a1 1 0 00-1 1v7a1 1 0 001 1zm11-4h-2l-2 2h3v5H8v-2l-2 2v1a1 1 0 001 1h8a1 1 0 001-1V7a1 1 0 00-1-1z"/><path d="M14.707 1.293a1 1 0 00-1.414 0L8.586 6H7a1 1 0 00-1 1v1.586l-4.707 4.707a1 1 0 101.414 1.414l12-12a1 1 0 000-1.414z"/></g></svg>