<!-- This Source Code Form is subject to the terms of the Mozilla Public
   - License, v. 2.0. If a copy of the MPL was not distributed with this
   - file, You can obtain one at http://mozilla.org/MPL/2.0/. -->
<svg xmlns="http://www.w3.org/2000/svg" width="16" height="16" viewBox="0 0 16 16"><path d="M8 1a4 4 0 00-4 4v1.984h-.5a1.5 1.5 0 00-1.5 1.5V13.5A1.5 1.5 0 003.5 15h2.535a2.274 2.274 0 01.207-1.318L9.43 7.27a2.266 2.266 0 01.2-.286H6V5a2 2 0 014 0v1.568A2.255 2.255 0 0111.478 6a2.283 2.283 0 01.522.073V5a4 4 0 00-4-4z" fill="context-fill" fill-opacity="context-fill-opacity"/><path d="M15.818 14.127l-3.189-6.411a1.285 1.285 0 00-2.3 0l-3.192 6.411A1.294 1.294 0 008.289 16h6.377a1.294 1.294 0 001.152-1.873z" fill="#ffbf00"/><path d="M11.478 8a.272.272 0 01.256.161l3.188 6.412a.291.291 0 01-.013.291.275.275 0 01-.243.137H8.289a.275.275 0 01-.243-.137.29.29 0 01-.013-.291l3.188-6.412A.272.272 0 0111.478 8m0-1a1.272 1.272 0 00-1.152.716l-3.189 6.411A1.294 1.294 0 008.289 16h6.377a1.294 1.294 0 001.152-1.873l-3.189-6.411A1.272 1.272 0 0011.478 7z" fill="#d76e00" opacity=".35"/><path d="M11.5 12a.5.5 0 00.5-.5v-2a.5.5 0 00-1 0v2a.5.5 0 00.5.5zm0 .809a.691.691 0 10.691.691.691.691 0 00-.691-.691z" fill="#fff"/></svg>