<!-- This Source Code Form is subject to the terms of the Mozilla Public
   - License, v. 2.0. If a copy of the MPL was not distributed with this
   - file, You can obtain one at http://mozilla.org/MPL/2.0/. -->
<svg xmlns="http://www.w3.org/2000/svg" width="24" height="24" viewBox="0 0 24 24"><path d="M18.75 9.977h-.727L6 22h12.75A2.25 2.25 0 0021 19.75v-7.523a2.25 2.25 0 00-2.25-2.25zm-9.75 0V7a3 3 0 016 0v1.5l2.838-2.838A5.994 5.994 0 006 7v2.977h-.75A2.25 2.25 0 003 12.227v7.523a2.224 2.224 0 00.105.645L13.523 9.977z"/><path d="M2.5 23a1.5 1.5 0 01-1.061-2.561l19-19A1.5 1.5 0 0122.56 3.56l-19 19A1.5 1.5 0 012.5 23z" fill="#ff0039"/></svg>