<!-- This Source Code Form is subject to the terms of the Mozilla Public
   - License, v. 2.0. If a copy of the MPL was not distributed with this
   - file, You can obtain one at http://mozilla.org/MPL/2.0/. -->
<svg xmlns="http://www.w3.org/2000/svg" width="16" height="16" viewBox="0 0 16 16"><path fill="context-fill" d="M15.707 4.293l-4-4a1 1 0 00-1.414 1.414L12.585 4H11a7.008 7.008 0 00-7 7 1 1 0 002 0 5.006 5.006 0 015-5h1.585l-2.293 2.293a1 1 0 101.414 1.414l4-4a1 1 0 00.001-1.414z"/><path fill="context-fill" d="M13 11a1 1 0 00-1 1v1a1 1 0 01-1 1H3a1 1 0 01-1-1V6a1 1 0 011-1h1a1 1 0 000-2H3a3 3 0 00-3 3v7a3 3 0 003 3h8a3 3 0 003-3v-1a1 1 0 00-1-1z"/></svg>