<!-- This Source Code Form is subject to the terms of the Mozilla Public
   - License, v. 2.0. If a copy of the MPL was not distributed with this
   - file, You can obtain one at http://mozilla.org/MPL/2.0/. -->
<svg xmlns="http://www.w3.org/2000/svg" width="16" height="16" viewBox="0 0 16 16" fill="context-fill" fill-opacity="context-fill-opacity"><path d="M3 1h10a3.008 3.008 0 013 3v8a3.009 3.009 0 01-3 3H3a3.005 3.005 0 01-3-3V4a3.013 3.013 0 013-3zm11 11V4a1 1 0 00-1-1H8v10h5a1 1 0 001-1zM2 12a1 1 0 001 1h4V3H3a1 1 0 00-1 1v8z"/><path d="M3.5 5h2a.5.5 0 000-1h-2a.5.5 0 000 1zm0 2h2a.5.5 0 000-1h-2a.5.5 0 000 1zm1 2h1a.5.5 0 000-1h-1a.5.5 0 000 1z"/></svg>