<!-- This Source Code Form is subject to the terms of the Mozilla Public
   - License, v. 2.0. If a copy of the MPL was not distributed with this
   - file, You can obtain one at http://mozilla.org/MPL/2.0/. -->
<svg xmlns="http://www.w3.org/2000/svg" width="16" height="16" viewBox="0 0 16 16"><path fill="context-fill" d="M14 1a1 1 0 00-1 1v1.146A6.948 6.948 0 001.227 6.307a1 1 0 101.94.484A4.983 4.983 0 018 3a4.919 4.919 0 013.967 2H10a1 1 0 000 2h4a1 1 0 001-1V2a1 1 0 00-1-1zm.046 7.481a1 1 0 00-1.213.728A4.983 4.983 0 018 13a4.919 4.919 0 01-3.967-2H6a1 1 0 000-2H2a1 1 0 00-1 1v4a1 1 0 002 0v-1.146a6.948 6.948 0 0011.773-3.161 1 1 0 00-.727-1.212z"/></svg>