<!-- This Source Code Form is subject to the terms of the Mozilla Public
   - License, v. 2.0. If a copy of the MPL was not distributed with this
   - file, You can obtain one at http://mozilla.org/MPL/2.0/. -->
<svg xmlns="http://www.w3.org/2000/svg" width="16" height="16" viewBox="0 0 16 16"><path fill="context-fill" d="M5.3 7H1.7A1.7 1.7 0 010 5.3V2.7A1.7 1.7 0 011.7 1h3.6A1.7 1.7 0 017 2.7v2.6A1.7 1.7 0 015.3 7zM2 5h3V3H2zm12.3 2h-3.6A1.7 1.7 0 019 5.3V2.7A1.7 1.7 0 0110.7 1h3.6A1.7 1.7 0 0116 2.7v2.6A1.7 1.7 0 0114.3 7zM11 5h3V3h-3zM5.3 15H1.7A1.7 1.7 0 010 13.3v-2.6A1.7 1.7 0 011.7 9h3.6A1.7 1.7 0 017 10.7v2.6A1.7 1.7 0 015.3 15zM2 13h3v-2H2zm12.3 2h-3.6A1.7 1.7 0 019 13.3v-2.6A1.7 1.7 0 0110.7 9h3.6a1.7 1.7 0 011.7 1.7v2.6a1.7 1.7 0 01-1.7 1.7zM11 13h3v-2h-3z"/></svg>