<!-- This Source Code Form is subject to the terms of the Mozilla Public
   - License, v. 2.0. If a copy of the MPL was not distributed with this
   - file, You can obtain one at http://mozilla.org/MPL/2.0/. -->
<svg xmlns="http://www.w3.org/2000/svg" width="16" height="16" viewBox="0 0 16 16" fill="context-fill" fill-opacity="context-fill-opacity"><path d="M9.306 9.694c.071.416.132.8.15 1.1a4.938 4.938 0 01-.058 1 18.45 18.45 0 003.478.193l.052-.537c.2-2.032.885-2.574 1.028-3.707a5.874 5.874 0 00-.223-2.475zm-.07 3.073c-.069.365-.136.737-.177 1.13a1.675 1.675 0 001.579 2.079c1.235.16 1.779-.976 1.944-1.635a8.594 8.594 0 00.2-1.35c-.2.005-.4.009-.606.009a18.258 18.258 0 01-2.94-.233zm5.471-11.474a1 1 0 00-1.414 0L6.547 8.039c0-.083-.008-.167 0-.249a25.267 25.267 0 00.432-3.949C6.724 1.833 5.853-.177 4.414 0 2.8.2 1.766 2.521 2.045 4.742c.143 1.133.828 1.675 1.028 3.707l.052.536a20.41 20.41 0 002.545-.069L4.614 9.972c-.256.012-.514.028-.76.028-.221 0-.432 0-.636-.01a9.6 9.6 0 00.169 1.21l-2.094 2.093a1 1 0 101.414 1.414l12-12a1 1 0 000-1.414z"/></svg>